<?xml version="1.0" encoding="UTF-8"?>
<svg id="Layer_1" data-name="Layer 1" xmlns="http://www.w3.org/2000/svg" version="1.1" viewBox="0 0 1504 1504">
  <defs>
    <style>
      .cls-1 {
        fill: #5cccd6;
        stroke-width: 0px;
      }
    </style>
  </defs>
  <path class="cls-1" d="M890.2,169.9c-57.6-.8-112,.7-169.2,12.7,44.1,3.5,84.5,4.4,124.3,10.1,174.1,25.2,325.4,96.2,436.1,236.5,126.7,160.7,156.2,343.2,94.9,536.6-66.8,210.6-207,353.7-420.5,416.5-172.6,50.8-340,28.2-495.8-60-184-104.2-301.8-261.6-347.8-468.7-42-188.9,5-358.5,128.9-505.2,127-150.3,292.2-229.8,486.7-249.3,29.1-2.9,58.6-1.8,87.8-3.2,16.2-.8,29,5.2,39.8,16.7,15,15.9,28.8,32.5,34.8,57.2ZM656.2,197.5c-3.5.9-8.1,1.8-12.6,3.1-70.5,20.8-137.4,50.2-197.4,92.7-205.3,145.5-307.7,339.2-267.2,594.6,21.4,134.7,85.5,248.1,195,331.3,129.3,98.4,276.8,130.5,436.4,108.2,359.9-50.2,567.9-395.4,517.1-690.1-21.3-123.3-81-221.7-187.6-288.7-121.3-76.2-255.9-96.7-395.9-87.4-29,1.9-48.4-6.6-64.4-28.3-7.8-10.7-14.6-22.1-23.3-35.6Z"/>
  <path class="cls-1" d="M843.2,1130.1c-15.6-6.4-30.2-12.9-45-18.5-27.5-10.3-39.9-30.7-39.8-59.2.1-37.9.5-75.8,1.4-113.7,1-43.2,2.7-86.4,4-129.6.1-4.1-.6-8.2-1-13.9-41.2,5.8-81,13.1-121.2,16.3-25.7,2.1-36.8,11.8-42.2,37.7-13.7,65.2-31.1,129.6-47.1,194.3-1.6,6.6-3.4,13.1-6,22.9-25.2-13.2-48.7-25.4-72-37.8-9.4-5-11-12.3-8.2-22.8,14-52,27.1-104.2,40.6-156.4,1.3-5.1,2.6-10.2,4.6-18.3-24.6,3.3-48.3,3.6-70.2,10-41.1,11.9-70.2-2.5-93.8-34.9-4.6-6.4-9.6-12.5-16.4-21.5,29.5-4.3,56.1-8.1,82.7-12,35.8-5.2,71.6-10.8,107.6-15.1,10.4-1.3,13.9-6.1,17-15.1,26-75.6,51.6-151.4,79.4-226.3,12.4-33.4,27.8-65.9,44.8-97.2,32.7-60.3,63.2-65.8,119.7-27.7,34.8,23.5,52.8,54.7,59,95.8,15.3,101,11.5,202.2,8.1,303.6-3.4,100.3-6.2,200.6-8.9,300.9-.3,12.1,1.8,24.3,3,38.6ZM761.5,457.5l-5.4-1.2c-55.1,87.9-92.8,183.5-124.5,283.6,6.5,0,11.2.6,15.7,0,33.8-4.8,67.4-10.9,101.2-14.3,15.6-1.6,19.1-7.7,18.9-22-.6-48.1.8-96.1-.2-144.2-.7-34-3.8-68-5.8-101.9Z"/>
  <path class="cls-1" d="M1074.4,737.4c-18.6,2.5-35.9,4.9-53.2,6.9-5.1.6-10.7.9-15.6-.5-18.7-5.5-52.5-39.9-59.5-60.2,38.5-5.6,76.9-11.6,115.4-16.3,11.2-1.4,14-5.7,13.9-16.2-.5-34.7-.3-69.4,0-104.1.2-29.6,15.4-38.9,41.1-24.8,22.6,12.4,36.2,30.4,35.2,57.9-.9,23.9-.2,47.8-.2,74.1,20.4-2.8,38.8-4.3,56.7-8,15.6-3.3,28.8-.1,39.8,10.5,15.1,14.5,29.3,30,43.9,45.1-.9,1.6-1.8,3.1-2.6,4.7-24.4,3.6-48.9,7.2-73.3,10.7-16.9,2.4-33.7,5.4-50.7,6.9-11,1-14.1,5.7-14,16.3.4,48,.8,96.1-.3,144.1-.2,10-4.2,25.3-11,28.5-8.4,3.9-22.9.3-32.2-4.7-21.4-11.6-33.4-30.1-32.7-56.1.8-32.5.2-65.1.1-97.7,0-5.2-.4-10.4-.7-17Z"/>
</svg>