<?xml version="1.0" encoding="UTF-8"?>
<svg id="Layer_1" data-name="Layer 1" xmlns="http://www.w3.org/2000/svg" viewBox="0 0 6269 4176.72">
  <defs>
    <style>
      .cls-1 {
        fill: #08437e;
      }

      .cls-1, .cls-2, .cls-3, .cls-4, .cls-5, .cls-6, .cls-7, .cls-8, .cls-9, .cls-10, .cls-11 {
        stroke-width: 0px;
      }

      .cls-2 {
        fill: #a5e9fe;
      }

      .cls-3 {
        fill: #055f9d;
      }

      .cls-4 {
        fill: #7cd3f5;
      }

      .cls-5 {
        fill: #29a8e7;
      }

      .cls-6 {
        fill: #09366f;
      }

      .cls-7 {
        fill: #53beef;
      }

      .cls-8 {
        fill: #7bd3f5;
      }

      .cls-9 {
        fill: #0379bf;
      }

      .cls-10 {
        fill: #c6f7fe;
      }

      .cls-11 {
        fill: #0092df;
      }
    </style>
  </defs>
  <path class="cls-2" d="M6268.08,2891.39v587.47c-14.24,14.65-32.82,14.65-51.13,14.63-236.03-.24-467.72,34.49-697.41,85.86-144.04,32.22-284.91,74.67-424.9,121.64-166.03,55.71-325.57,127.3-488.93,189.38-244.46,92.9-494.54,165.96-752.01,213.85-229.3,42.65-460.45,60.7-693.16,54.58-243.14-6.4-483.04-39.38-720.32-94.34-318.4-73.75-626.94-178.99-936.55-281.75-260.05-86.31-522.49-165.63-791.6-220.09-143.32-29-287.99-48.06-433.62-61.51-73.02-6.74-145.89-7.13-218.95-7.6-20.7-.13-42.29,2.13-58.97-14.67v-595.3c18.56-25.93,47.48-35.02,75.21-45.68,101.57-39.04,203.57-76.89,308.41-106.48,158.73-49.54,321.01-77.83,487.01-90.22,148.39-11.08,294.21,2.73,439.08,30.54,232.51,44.62,443.19,143.16,643.19,266.9,108.9,67.37,209.21,146.67,311.65,223.03,108.06,70.56,216.03,141.27,329.62,202.77,100.91,54.63,202.17,108.18,308.45,152.49,232.7,97,472.3,165.9,723.79,191.14,323.51,32.47,640.76-2.4,951.67-93.29,253.39-74.07,496.9-174.23,735.35-287.71,292.1-139.01,578.02-290.8,873.92-421.86,24.8-10.99,49.53-32.6,80.2-13.81Z"/>
  <path class="cls-8" d="M6268.08,2891.39c-68.33,14.57-128.31,50.2-190.65,78.77-135.92,62.3-269.73,129.24-403.87,195.36-97.66,48.14-192.99,101.22-291.99,146.34-157.42,71.74-313.53,146.42-476.36,206.27-98.85,36.34-197.81,72.04-298.51,102.47-147,44.42-297.13,73.51-449.39,95.21-90.66,12.92-181.83,17.4-271.95,18.47-115.1,1.36-231.23-4.16-346.05-22.08-115.83-18.08-230.33-41.18-342.52-75.28-98.23-29.86-195.23-63.28-289.77-103.42-82.59-35.07-163.99-72.39-242.92-115.51-123.17-67.28-245.08-136.42-360.48-216.51-14.9-10.34-34.2-13.53-46.03-28.71,25.9-21.78,59.28-17.24,89.09-23.76,202.07-44.2,397.13-109.94,589.03-186.14,274.22-108.89,538.64-239.94,809.2-357.07,262.59-113.68,529.27-216.37,810.24-275.61,158.37-33.39,318.31-53.32,480.99-57.47,292.95-7.48,577.29,37.56,856.05,123.24,107.26,32.97,212.05,73.44,315.45,117.2,22.75,9.63,45.83,19.56,60.44,41.41v336.82Z"/>
  <path class="cls-7" d="M6268.08,2554.57c-103.01-43.59-206.4-85.93-312.52-121.81-148.13-50.08-299.13-86.73-453.04-114.41-171.74-30.89-344.5-33.14-517.7-29.7-152.54,3.03-302.38,28.43-451.09,61.35-182.11,40.32-358.69,98.05-532.08,166.26-146.59,57.67-290.93,120.33-434.48,185.28-271.5,122.85-541.2,250.28-822.9,349.13-141.35,49.6-285.63,89.17-432.08,120.57-17.51,3.76-36.38,1.17-54.62,1.52-161.31-123.38-325.14-243.35-507.84-333.72-164.02-81.13-335.76-140.29-517.67-167.5-182.74-27.33-364.67-25.69-547.22,4.59-101.51,16.84-200.91,41.05-300.14,67.06-20.92,7.86-39.75,3.66-58.97-7.22-98.12-55.54-197.16-109.39-300.17-155.5-9.74-4.36-17.5-10.92-25.02-18.08v-971.29c17.63-13.61,35.25-4.48,51.99,1.23,260.87,88.97,503.05,214.97,731.75,368.09,114.91,76.93,223.04,163.22,337.31,241.02,195.52,131.16,398.87,248.23,618.38,334.53,181.67,71.42,369.15,120.48,564.46,138.87,331.12,31.18,646.01-31.15,952.94-152.76,259.6-102.86,500.57-240.65,740.94-380.26,137.62-79.94,273.93-162.22,413.13-239.34,166.59-92.3,335.36-180.65,513.86-248.56,9.78-3.72,18.67-9.32,28.26-13.55,259.7-99.27,527.55-157.69,806.53-149.48,155.31,4.57,309.02,27.44,459.14,70.03,19.2,5.45,36.9,13.11,48.86,30.17v963.45Z"/>
  <path class="cls-9" d="M.53,1034.98v-344.65c19.69-28.71,52.2-32.97,81.83-41.39,160.52-45.64,322.12-86.87,485.82-119.81,46.02-9.26,93.17-11.52,138.52-24.34,145.29-24.24,291.63-40.07,438.64-46.4,111.88-4.82,223.87-4.57,336.03,3.85,126.12,9.47,251.95,20.12,376.66,40.91,338.47,56.43,664.29,156.56,981.37,286.48,28.61,18.5,61.54,27.59,92.68,39.87,216.14,85.23,434.87,163.23,662.76,211.21,215.86,45.45,432.94,80.46,655.14,74.25,145.93-4.08,292.24,4.39,437.52-16.99,126.41-18.61,252.53-38.37,377.48-65.78,259.03-56.83,511.13-137.08,763.06-218.68,127.72-41.37,254.34-86.42,383.89-122.05,18.26-5.02,37.19-15.1,56.16-1.13v344.65c-14.37,17.06-34.38,22.83-54.97,27.41-238.37,53.1-471.8,123.31-704.42,197.32-258.55,82.26-516,167.88-774.56,250.07-26.17,8.32-52.8,14.47-80.5,14.69-53.38-13.7-101.47-40.53-151.41-62.45-257.73-113.11-521.16-207.97-802.07-243.29-280.17-35.23-553.84-8.79-818.8,94.55-158.81,61.94-308.18,140.75-448.59,237.03-12.94,8.87-26.42,16.86-42.31,19.52-30.68,2.7-54.75-14.16-80.14-27.17-133.81-68.57-254.96-157.14-380.29-239.25-147.63-96.73-304.71-174.45-472.99-230.07-106.81-35.3-215.22-63.23-325.86-80.49-180.55-28.16-362.3-38.21-545.16-24.78-67.55,4.96-135.03,9.3-202.35,17.36-109.96,13.17-219.33,29.4-327.54,53.11-18.88,4.14-38.01,12.36-55.6-3.57Z"/>
  <path class="cls-10" d="M.53,3478.86c157.72-3.31,314.11,8.7,470.64,29.66,193.92,25.96,384.03,67.05,571.86,120.45,86.3,24.53,173.47,46.38,258.72,74.13,111.02,36.14,222.35,71.35,332.88,109.18,157.43,53.88,316.76,102.33,475.94,150.94,137.72,42.06,277.51,76.67,418.46,106.14,130.94,27.38,263.13,46.9,396.33,60.06,144.1,14.25,288.67,20.03,433.05,14.08,126.97-5.23,253.73-15.29,379.92-35.08,117.01-18.35,233.34-40.32,347.91-68.25,127.28-31.03,253.72-67.7,376.75-113.77,146.98-55.04,294.5-109.1,439.03-170.1,92.43-39.01,187.22-70.83,282.12-101.22,123.49-39.55,247.94-77.69,376.74-98.66,63.95-10.42,126.71-28.29,190.73-38.18,83.29-12.87,167.24-21.48,250.98-31.34,88.23-10.38,176.91-8.09,265.49-8.04,0,220.63-.65,441.26.78,661.88.19,29.4-6.66,36-36.04,35.98-2077.43-.8-4154.86-.73-6232.29-.73,0-232.38,0-464.76,0-697.13Z"/>
  <path class="cls-3" d="M6268.08,690.33c-126.07,36.35-249.84,80.07-375.06,118.85-144.72,44.82-288.44,92.91-433.88,135.67-104.49,30.72-209.65,58.34-315.25,84-160.1,38.91-322.39,65.86-486.24,86.03-199.03,24.5-398.27,14.48-597.14,11.44-101.3-1.55-202.97-22.71-304.07-39.87-127.1-21.58-252.18-50.38-375.91-84.75-84.63-23.52-168.94-49.39-250.89-82.13-65.02-25.98-131.6-48.04-196.84-73.51-33.11-12.93-67.04-24.8-96.55-45.64,8.3-17.88,25.61-21.29,42-24.94,254.79-56.65,506.72-124.32,757.3-197.04,44.97-13.05,91.02-22.83,134.58-40.7,189-55.65,377.95-111.42,567.74-164.31,261.62-72.91,525.22-136.79,793.83-178.49,140.5-21.81,281.83-34.67,423.57-46.28,194.13-15.9,385.49,5.95,576.95,29.07,46.5,5.62,96.82,8.81,135.84,42.64v469.98Z"/>
  <path class="cls-11" d="M.53,1034.98c73.94-13.78,147.7-28.62,221.87-41.08,110.08-18.49,220.48-34.09,332.39-37.87,48.01-1.62,95.81-7.22,144.08-7.67,176.06-1.61,350.26,12.68,523.27,47.09,175.67,34.94,343.01,93.68,503.06,171.96,150.73,73.72,286.13,173.29,425.17,266.43,64.72,43.35,134.24,78.4,202.7,115.26,11.57,6.23,23.42,11.62,37,11.25,1.69,22.83-17.56,30.67-31.3,40.97-145.03,108.64-293.8,211.4-451.46,301.55-178.21,101.91-362.6,189.12-557.25,254.41-59.31,19.9-119.51,36.88-179.88,53.22-18.99,5.14-38.16,6.5-57.12-.63-110.36-78.11-219.79-157.56-331.27-234.04-214.5-147.16-442.45-268.75-688.65-354.59-30.65-10.68-61.73-20.12-92.6-30.14,0-185.38,0-370.76,0-556.14Z"/>
  <path class="cls-6" d="M6268.08,220.35c-206.57-45.99-416-66.38-627.2-61.36-112.8,2.68-225.37,14.42-337.75,27.72-234.01,27.68-464.52,73.38-692.93,129.51-141.35,34.73-281.15,75.9-421.22,115.67-131.21,37.25-261.83,76.53-392.82,114.58-8.59,2.5-18.03,2.1-27.07,3.05-26.86,9.6-53.11,8.01-79.81-1.96-108.82-40.61-221.14-70.56-330.85-108.62-163.85-56.83-329.7-107.63-496.09-156.45-202.91-59.54-408.55-108.33-617.84-138.66-206.75-29.96-415.13-41.62-624.05-33.27-87.2,3.49-173.81,16.33-260.61,25.92-298.69,33.03-586.01,111.8-867.88,212.97-26.04,9.35-53.41,10.32-80.22,14.83-46-6.21-85.03-31.95-128.28-46.31-75.51-25.07-150.48-51.55-228.02-69.97-20.38-4.84-40.55-10.62-54.91-27.65C.53,153.77,1.27,87.18.02,20.62-.3,3.75,3.26-2.48,20.15.87c5.03,1,10.42.15,15.64.15,2065.68,0,4131.36.07,6197.04-.73,29.37-.01,37.32,6.45,36.05,36.01-2.63,61.25-.79,122.68-.79,184.04Z"/>
  <path class="cls-11" d="M4654.17,1513.44c73.46-7.5,139.18-41.16,208.52-62.44,142.54-43.76,284.37-89.84,426.28-135.64,88.85-28.68,176.68-60.6,266.06-87.46,131.43-39.49,263.01-78.5,395.36-115.02,105.26-29.04,211.74-52.18,317.69-77.9v556.14c-171.25-53.54-347.01-81.65-525.98-85.4-258.45-5.41-507.06,47.53-748.99,135.49-13.45,4.89-27.21,8.94-40.83,13.39-18.26,6.62-35.1,2.37-52.1-5.46-75.1-34.58-147.77-74.12-222.77-108.92-11.18-5.19-24.95-9.71-23.24-26.79Z"/>
  <path class="cls-3" d="M.53,220.35c121.12,26.78,238.95,64.12,353.98,110.39,17.97,7.23,35.68,15.11,53.51,22.69,107.58,20.35,194.07,84.35,285.33,138.34,8.77,5.19,16.53,13.35,12.47,25.92-101.73,20.86-203.95,39.61-305.04,63.19-91.87,21.43-183.68,43.36-273.92,71.9-41.71,13.19-84.41,24.31-126.33,37.55V220.35Z"/>
  <path class="cls-4" d="M.53,2562.4c74.73,16.44,137.8,58.99,204.75,92.55,49.62,24.87,97.43,53.41,145.6,81.09,10.99,6.31,22.35,5.79,33.82,7.16-76.04,26.31-152.38,51.8-228.03,79.2-52.54,19.03-104.12,40.68-156.13,61.15,0-107.05,0-214.1,0-321.15Z"/>
  <path class="cls-5" d="M4654.17,1513.44c99.56,46.65,194.51,103.02,298.11,141.16-168.23,66.9-329.22,149.27-489.21,233.21-100.17,52.56-196.43,112.62-294.05,170-227.62,133.78-454.15,269.61-692.37,384.16-232.02,111.57-472.71,198.25-728.41,236.05-167.97,24.83-336.5,24.48-505.63,3.32-176.97-22.14-346.51-69.94-511.77-134.31-157.76-61.45-306.76-141.14-451.96-227.65-56.84-33.87-110.64-72.85-165.82-109.5,174.85-38.51,343.02-97.63,505.54-171.57,156.64-71.27,306.74-155.3,451.27-249.04,110.21-71.48,216.42-148.49,320.21-228.92,111.91-74.33,225.72-145.4,347.98-201.94,179.62-83.07,365.99-140.79,564.17-159.78,227.01-21.76,449.19,1.93,669.09,58.6,228.02,58.76,444.29,148.3,657.32,246.76,8.22,3.8,17.01,6.34,25.54,9.46Z"/>
  <path class="cls-1" d="M705.82,517.69c-34.52-32.24-77.04-52.7-117.4-75.35-58.38-32.76-120.1-59.56-180.4-88.91,93.61-13.98,178.67-55.63,268.03-83.33,196.58-60.95,396.19-111.56,599.32-140.87,212.27-30.63,427.19-45.95,642.11-32.84,87.73,5.35,175.53,16.98,263.13,26.6,149.16,16.39,294.78,47.69,440.41,80.9,135.71,30.95,269.27,69.93,401.95,111.55,213.15,66.87,425.6,136,638.13,204.83,35.59,11.53,68.03,33.97,107.98,29.25-78.96,33.31-162.88,50.87-244.3,76.32-65.5,20.47-132.22,37.17-198.76,54.13-119.1,30.37-237.35,64.08-357.88,88.8-44.26,9.07-87.94,21-131.89,31.63-86.75-31.7-173.01-64.86-260.36-94.82-211.77-72.64-426.69-132.52-647.3-173.91-164.18-30.8-329.45-48.25-495.33-58.25-145.51-8.77-291.52-2.64-437.21,10.65-97.11,8.86-193.29,24.21-290.23,33.62Z"/>
</svg>